# File created by Blade
# Date/Time:  Wed Jan 21 14:43:55 2015
# Frame Rate: 120.000 fps
#------------------------------------------------------
:FULLY-SPECIFIED
:DEGREES
1024
root 24.275306 35.301722 -19.255490 -168.265354 6.313149 190.179252
Spine -14.262907 0.346817 -32.384432
Head 26.268566 -1.930766 -22.248824
LeftShoulder -16.441631 -55.560336 43.753592
LeftArm 45.203677 -31.966474 -7.612968
LeftForeArm -72.317726 -0.000000 79.998933
LeftHand 1.902671 0.000000 -17.652484
LeftHandThumb1 -26.253704 0.000000 33.147579
RightShoulder -12.462436 25.490448 -60.248724
RightArm 125.305563 67.213521 85.133183
RightForeArm 42.431909 -0.000000 102.673304
RightHand 11.386048 0.000000 4.108189
RightHandThumb1 -24.326973 -0.000000 -32.862282
LeftUpLeg -2.203008 23.425859 17.836420
LeftLeg -8.404880 -0.000000 0.000000
LeftFoot -15.570986 26.104962 -15.433929
LeftToeBase 29.801005 -0.000000 -0.000000
RightUpLeg -6.175992 -0.428588 14.705179
RightLeg -2.819959 -0.000000 0.000000
RightFoot -16.649803 -18.444493 15.313131
RightToeBase 24.090694 -0.000000 -0.000000
1025
root 24.334077 35.291594 -19.251342 -168.354354 6.390438 190.291662
Spine -14.111430 0.424276 -32.604962
Head 26.458791 -1.700840 -22.484720
LeftShoulder -16.677769 -55.359527 43.781399
LeftArm 45.292198 -31.944768 -7.789010
LeftForeArm -72.253344 -0.000000 80.055522
LeftHand 1.969168 -0.000000 -17.720692
LeftHandThumb1 -26.253704 0.000000 33.147579
RightShoulder -12.508059 25.526920 -60.284663
RightArm 125.005485 66.993124 84.707853
RightForeArm 42.338888 -0.000000 102.616953
RightHand 11.457723 -0.000000 4.368677
RightHandThumb1 -24.326973 -0.000000 -32.862282
LeftUpLeg -2.071019 23.645346 18.076958
LeftLeg -8.371059 -0.000000 0.000000
LeftFoot -15.553988 25.988545 -15.366661
LeftToeBase 29.897899 -0.000000 -0.000000
RightUpLeg -6.061429 -0.383546 14.883761
RightLeg -2.801426 -0.000000 0.000000
RightFoot -16.619254 -18.332215 15.363125
RightToeBase 23.883672 -0.000000 -0.000000
1026
root 24.392748 35.283054 -19.248481 -168.456811 6.457493 190.392126
Spine -13.929716 0.473752 -32.828696
Head 26.543352 -1.487726 -22.717192
LeftShoulder -16.841683 -55.319864 43.796856
LeftArm 45.218139 -31.864640 -7.784233
LeftForeArm -72.256181 -0.000000 80.221823
LeftHand 1.990509 0.000000 -17.810560
LeftHandThumb1 -26.253704 0.000000 33.147579
RightShoulder -12.573444 25.592617 -60.318346
RightArm 124.744435 66.762665 84.325030
RightForeArm 42.294067 -0.000000 102.542754
RightHand 11.529689 -0.000000 4.644453
RightHandThumb1 -24.326973 -0.000000 -32.862282
LeftUpLeg -1.913831 23.761334 18.316329
LeftLeg -8.362843 -0.000000 0.000000
LeftFoot -15.526098 25.962301 -15.371991
LeftToeBase 29.939543 -0.000000 -0.000000
RightUpLeg -5.914154 -0.312855 15.048808
RightLeg -2.820577 -0.000000 0.000000
RightFoot -16.630020 -18.311732 15.265164
RightToeBase 24.174824 -0.000000 -0.000000
1027
root 24.449137 35.272442 -19.243019 -168.488570 6.534235 190.484466
Spine -13.897879 0.565910 -33.055141
Head 26.799624 -1.324938 -22.886327
LeftShoulder -16.702286 -55.283271 43.572765
LeftArm 45.088628 -31.757317 -7.703291
LeftForeArm -72.301579 0.000000 80.338162
LeftHand 1.961320 -0.000000 -17.632313
LeftHandThumb1 -26.253704 0.000000 33.147579
RightShoulder -12.468978 25.335315 -60.242339
RightArm 125.087736 66.633227 84.430169
RightForeArm 42.232376 -0.000000 102.458492
RightHand 11.615901 -0.000000 4.853394
RightHandThumb1 -24.326973 -0.000000 -32.862282
LeftUpLeg -1.844138 23.915933 18.514665
LeftLeg -8.328949 -0.000000 0.000000
LeftFoot -15.519199 25.929606 -15.335996
LeftToeBase 29.961494 -0.000000 -0.000000
RightUpLeg -5.854623 -0.216591 15.203312
RightLeg -2.814791 -0.000000 0.000000
RightFoot -16.647315 -18.226281 15.369347
RightToeBase 23.960581 -0.000000 -0.000000
1028
root 24.503669 35.265496 -19.239188 -168.586809 6.596302 190.581397
Spine -13.742854 0.654732 -33.284730
Head 26.948111 -1.271741 -23.196010
LeftShoulder -16.905571 -54.997622 43.557575
LeftArm 45.252059 -31.827519 -7.950627
LeftForeArm -72.088919 0.000000 80.439905
LeftHand 1.979585 0.000000 -17.498368
LeftHandThumb1 -26.253704 0.000000 33.147579
RightShoulder -12.454790 25.204697 -60.164599
RightArm 125.275435 66.517370 84.366989
RightForeArm 42.192690 -0.000000 102.386319
RightHand 11.858066 -0.000000 5.167753
RightHandThumb1 -24.326973 -0.000000 -32.862282
LeftUpLeg -1.702006 24.021491 18.748963
LeftLeg -8.302434 -0.000000 0.000000
LeftFoot -15.491901 25.883085 -15.337647
LeftToeBase 30.009795 -0.000000 -0.000000
RightUpLeg -5.724289 -0.122323 15.357339
RightLeg -2.810706 -0.000000 0.000000
RightFoot -16.627756 -18.260096 15.223554
RightToeBase 24.186349 -0.000000 -0.000000
1029
root 24.559793 35.256951 -19.237143 -168.668352 6.643380 190.666805
Spine -13.640988 0.684965 -33.481573
Head 27.173063 -1.115361 -23.467809
LeftShoulder -16.808972 -54.926318 43.317414
LeftArm 45.196668 -31.802635 -7.841233
LeftForeArm -72.212514 -0.000000 80.461963
LeftHand 1.958705 -0.000000 -17.616908
LeftHandThumb1 -26.253704 0.000000 33.147579
RightShoulder -12.402719 25.059556 -60.130596
RightArm 125.478772 66.344657 84.374710
RightForeArm 42.042967 -0.000000 102.336662
RightHand 11.917684 0.000000 5.306321
RightHandThumb1 -24.326973 -0.000000 -32.862282
LeftUpLeg -1.569865 24.046891 18.979152
LeftLeg -8.288162 -0.000000 0.000000
LeftFoot -15.472113 25.885516 -15.377377
LeftToeBase 29.976985 -0.000000 -0.000000
RightUpLeg -5.610575 -0.044383 15.507179
RightLeg -2.814285 -0.000000 0.000000
RightFoot -16.645984 -18.215459 15.269485
RightToeBase 24.081540 -0.000000 -0.000000
1030
root 24.613933 35.248402 -19.233574 -168.728439 6.705647 190.765912
Spine -13.548569 0.733209 -33.657523
Head 27.333742 -0.903970 -23.653319
LeftShoulder -16.849509 -54.895061 43.212936
LeftArm 45.137236 -31.699796 -7.796648
LeftForeArm -72.200372 -0.000000 80.550475
LeftHand 2.060621 -0.000000 -17.512250
LeftHandThumb1 -26.253704 0.000000 33.147579
RightShoulder -12.415857 25.057730 -60.179861
RightArm 125.417470 66.162074 84.189322
RightForeArm 42.038573 -0.000000 102.294119
RightHand 11.874021 -0.000000 5.389054
RightHandThumb1 -24.326973 -0.000000 -32.862282
LeftUpLeg -1.433708 24.039013 19.214747
LeftLeg -8.306627 -0.000000 0.000000
LeftFoot -15.476918 25.964023 -15.393964
LeftToeBase 30.063109 -0.000000 -0.000000
RightUpLeg -5.516140 0.070220 15.662271
RightLeg -2.814635 -0.000000 0.000000
RightFoot -16.647755 -18.225917 15.232175
RightToeBase 24.179038 -0.000000 -0.000000
1031
root 24.672433 35.237738 -19.230422 -168.760526 6.761790 190.851223
Spine -13.562323 0.807022 -33.868263
Head 27.680858 -0.781627 -23.729687
LeftShoulder -16.610582 -54.754253 42.944610
LeftArm 45.074733 -31.735320 -7.836634
LeftForeArm -72.218518 0.000000 80.609202
LeftHand 1.945938 0.000000 -17.652636
LeftHandThumb1 -26.253704 0.000000 33.147579
RightShoulder -12.225584 24.943752 -60.144119
RightArm 125.357864 66.118374 83.981786
RightForeArm 42.096091 -0.000000 102.270042
RightHand 12.030439 -0.000000 5.599546
RightHandThumb1 -24.326973 -0.000000 -32.862282
LeftUpLeg -1.346676 24.091257 19.427535
LeftLeg -8.295800 -0.000000 0.000000
LeftFoot -15.467828 25.970000 -15.419732
LeftToeBase 30.073946 -0.000000 -0.000000
RightUpLeg -5.460580 0.159386 15.818006
RightLeg -2.796032 -0.000000 0.000000
RightFoot -16.659280 -18.228027 15.164569
RightToeBase 24.107080 -0.000000 -0.000000
